<svg xmlns="http://www.w3.org/2000/svg" width="32.34" height="32.367" viewBox="0 0 32.34 32.367">
  <g id="Path_17" transform="translate(6.033 2.208) rotate(9)" stroke-linecap="round" stroke-linejoin="round">
    <path d="M 12.61122894287109 25.36423301696777 L 12.20108890533447 25.36414337158203 C 8.693538665771484 25.36338424682617 5.395719051361084 23.99503326416016 2.915138959884644 21.51114273071289 C 0.4349089562892914 19.02761268615723 -0.9314310550689697 15.72607326507568 -0.9321910738945007 12.21471309661865 C -0.932951033115387 8.703863143920898 0.4317989349365234 5.403103351593018 2.910658836364746 2.920453548431396 C 5.389819145202637 0.4375134706497192 8.686498641967773 -0.9299065470695496 12.19339847564697 -0.9299065470695496 C 15.70382881164551 -0.9291465282440186 19.00164985656738 0.4392034709453583 21.48222923278809 2.923093557357788 C 23.96245956420898 5.406623363494873 25.32879829406738 8.708163261413574 25.32955932617188 12.21952342987061 L 25.32963943481445 12.60457324981689 L 25.07146835327148 12.89024353027344 C 23.07329940795898 15.10120391845703 21.17223930358887 16.94211387634277 18.97097969055176 19.0737133026123 L 18.76954078674316 19.26878547668457 C 17.26661682128906 20.89200210571289 15.92727088928223 22.17101860046387 14.63197898864746 23.40796279907227 C 14.03669929504395 23.9764232635498 13.4744291305542 24.51336288452148 12.9033088684082 25.07631301879883 L 12.61122894287109 25.36423301696777 Z" stroke="none" fill="red"/>
    <path d="M 12.19337940216064 0.07009315490722656 C 5.495370864868164 0.07009315490722656 0.06635856628417969 5.507112503051758 0.06779861450195312 12.21449375152588 C 0.06924819946289062 18.9231128692627 5.501609802246094 24.36269378662109 12.20130920410156 24.36414337158203 C 14.04412937164307 22.54764366149902 15.88605880737305 20.91317367553711 18.05413818359375 18.56952285766602 C 20.31904983520508 16.37597274780273 22.28694915771484 14.47988319396973 24.32955932617188 12.2197437286377 C 24.32810974121094 5.511123657226562 18.89575958251953 0.07154273986816406 12.19605922698975 0.07009315490722656 C 12.19483184814453 0.07009315490722656 12.19460582733154 0.07009315490722656 12.19337940216064 0.07009315490722656 M 12.19337940216064 -1.929906845092773 L 12.19605922698975 -1.929906845092773 C 15.97132873535156 -1.929086685180664 19.52034950256348 -0.4565467834472656 22.1898078918457 2.216453552246094 C 24.85854911804199 4.888753890991211 26.32873916625977 8.441163063049316 26.32955932617188 12.219313621521 C 26.32966995239258 12.71497344970703 26.14571952819824 13.19301319122314 25.81337928771973 13.56074333190918 C 23.79281806945801 15.79648303985596 21.88059997558594 17.64818382263184 19.66643905639648 19.79226303100586 L 19.48470878601074 19.9682502746582 C 17.96846008300781 21.60452461242676 16.62356185913086 22.88882827758789 15.3225793838501 24.13120269775391 C 14.73024940490723 24.69683265686035 14.17077922821045 25.23110389709473 13.60531902313232 25.78849411010742 C 13.23099899291992 26.15746307373047 12.72662925720215 26.36385154724121 12.20087909698486 26.36414337158203 C 8.42603874206543 26.36332321166992 4.877008438110352 24.89078330993652 2.207559585571289 22.21778297424316 C -0.4611911773681641 19.54548263549805 -1.931381225585938 15.99307346343994 -1.932201385498047 12.21492385864258 C -1.933010101318359 8.437173843383789 -0.4644317626953125 4.885402679443359 2.202999114990234 2.213893890380859 C 4.871088027954102 -0.4582767486572266 8.419078826904297 -1.929906845092773 12.19337940216064 -1.929906845092773 Z" stroke="none" fill="#fff"/>
  </g>
</svg>
